<?xml version="1.0" encoding="UTF-8" standalone="no"?>
<!-- Created with Inkscape (http://www.inkscape.org/) -->

<svg
   xmlns:dc="http://purl.org/dc/elements/1.1/"
   xmlns:cc="http://creativecommons.org/ns#"
   xmlns:rdf="http://www.w3.org/1999/02/22-rdf-syntax-ns#"
   xmlns:svg="http://www.w3.org/2000/svg"
   xmlns="http://www.w3.org/2000/svg"
   xmlns:sodipodi="http://sodipodi.sourceforge.net/DTD/sodipodi-0.dtd"
   xmlns:inkscape="http://www.inkscape.org/namespaces/inkscape"
   width="122.99906"
   height="39.023441"
   id="svg3045"
   version="1.1"
   inkscape:version="0.48.1 r9760"
   sodipodi:docname="New document 2">
  <defs
     id="defs3047" />
  <sodipodi:namedview
     inkscape:document-units="mm"
     pagecolor="#ffffff"
     bordercolor="#666666"
     borderopacity="1.0"
     inkscape:pageopacity="0.0"
     inkscape:pageshadow="2"
     inkscape:zoom="0.43415836"
     inkscape:cx="-17.417305"
     inkscape:cy="180.69756"
     inkscape:current-layer="layer1"
     id="namedview3049"
     showgrid="false"
     units="mm"
     fit-margin-top="0"
     fit-margin-left="0"
     fit-margin-right="0"
     fit-margin-bottom="0"
     inkscape:window-width="1440"
     inkscape:window-height="847"
     inkscape:window-x="0"
     inkscape:window-y="0"
     inkscape:window-maximized="1" />
  <metadata
     id="metadata3051">
    <rdf:RDF>
      <cc:Work
         rdf:about="">
        <dc:format>image/svg+xml</dc:format>
        <dc:type
           rdf:resource="http://purl.org/dc/dcmitype/StillImage" />
        <dc:title></dc:title>
      </cc:Work>
    </rdf:RDF>
  </metadata>
  <g
     inkscape:label="Layer 1"
     inkscape:groupmode="layer"
     id="layer1"
     transform="translate(-507.4173,-505.7686)">
    <g
       transform="translate(495.18655,-409.58113)"
       style="font-size:64px;font-style:normal;font-variant:normal;font-weight:normal;font-stretch:normal;line-height:125%;letter-spacing:0px;word-spacing:0px;fill:#000000;fill-opacity:1;stroke:none;font-family:Droid Sans;-inkscape-font-specification:Droid Sans"
       id="text2985">
      <path
         d="m 22.699505,917.65442 0,6.21094 7.207031,0 0,5 -7.207031,0 0,9.27734 c -1.1e-5,1.01563 0.201812,1.70574 0.605469,2.07031 0.403633,0.35157 1.204414,0.52735 2.402343,0.52735 l 3.59375,0 0,5 -5.996093,0 c -2.760426,0 -4.720059,-0.57292 -5.878907,-1.71875 -1.145838,-1.15885 -1.718754,-3.11849 -1.71875,-5.87891 l 0,-9.27734 -3.476562,0 0,-5 3.476562,0 0,-8.21094 6.992188,0"
         style="font-size:40px;font-weight:bold;letter-spacing:-2.83999991px;font-family:DejaVu Sans;-inkscape-font-specification:DejaVu Sans"
         id="path3998"
         inkscape:connector-curvature="0"
         sodipodi:nodetypes="cccccccsccscscccccc" />
      <path
         inkscape:connector-curvature="0"
         d="m 41.773567,928.33801 c -1.549491,2e-5 -2.734386,0.55992 -3.554687,1.67969 -0.807301,1.10679 -1.210947,2.70835 -1.210938,4.80469 -9e-6,2.09636 0.403637,3.70443 1.210938,4.82422 0.820301,1.10677 2.005196,1.66016 3.554687,1.66015 1.523422,10e-6 2.688786,-0.55338 3.496094,-1.66015 0.807274,-1.11979 1.210919,-2.72786 1.210937,-4.82422 -1.8e-5,-2.09634 -0.403663,-3.6979 -1.210937,-4.80469 -0.807308,-1.11977 -1.972672,-1.67967 -3.496094,-1.67969 m 0,-5 c 3.763004,3e-5 6.699198,1.01565 8.808594,3.04688 2.122371,2.03127 3.183568,4.84376 3.183594,8.4375 -2.6e-5,3.59376 -1.061223,6.40625 -3.183594,8.4375 -2.109396,2.03125 -5.04559,3.04687 -8.808594,3.04687 -3.776051,0 -6.731778,-1.01562 -8.867187,-3.04687 -2.122399,-2.03125 -3.183596,-4.84374 -3.183594,-8.4375 -2e-6,-3.59374 1.061195,-6.40623 3.183594,-8.4375 2.135409,-2.03123 5.091136,-3.04685 8.867187,-3.04688"
         style="font-size:40px;font-weight:bold;letter-spacing:-2.83999991px;font-family:DejaVu Sans;-inkscape-font-specification:DejaVu Sans"
         id="path4000" />
      <path
         inkscape:connector-curvature="0"
         d="m 67.664036,941.22864 c 1.497379,0 2.636701,-0.54687 3.417969,-1.64063 0.794251,-1.09374 1.191386,-2.68228 1.191406,-4.76562 -2e-5,-2.08332 -0.397155,-3.67186 -1.191406,-4.76563 -0.781268,-1.09373 -1.92059,-1.6406 -3.417969,-1.64062 -1.49741,2e-5 -2.649752,0.5534 -3.457031,1.66015 -0.794282,1.09377 -1.191417,2.6758 -1.191407,4.7461 -10e-6,2.07032 0.397125,3.65886 1.191407,4.76562 0.807279,1.09376 1.959621,1.64063 3.457031,1.64063 m -4.648438,-14.16016 c 0.963531,-1.27602 2.031238,-2.21352 3.203125,-2.8125 1.171861,-0.61196 2.519515,-0.91794 4.042969,-0.91797 2.695292,3e-5 4.908832,1.07424 6.640625,3.22266 1.731745,2.13543 2.597629,4.88934 2.597656,8.26172 -2.7e-5,3.3724 -0.865911,6.13281 -2.597656,8.28125 -1.731793,2.13541 -3.945333,3.20312 -6.640625,3.20312 -1.523454,0 -2.871108,-0.29948 -4.042969,-0.89843 -1.171887,-0.61198 -2.239594,-1.55599 -3.203125,-2.83204 l 0,3.16407 -6.992187,0 0,-30.39063 6.992187,0 0,11.71875"
         style="font-size:40px;font-weight:bold;letter-spacing:-2.83999991px;font-family:DejaVu Sans;-inkscape-font-specification:DejaVu Sans"
         id="path4002" />
      <path
         inkscape:connector-curvature="0"
         d="m 81.855289,923.86536 6.992188,0 0,21.875 -6.992188,0 0,-21.875 m 0,-8.51563 6.992188,0 0,5.70313 -6.992188,0 0,-5.70313"
         style="font-size:40px;font-weight:bold;letter-spacing:-2.83999991px;font-family:DejaVu Sans;-inkscape-font-specification:DejaVu Sans"
         id="path4004" />
      <path
         inkscape:connector-curvature="0"
         d="m 92.765285,923.86536 6.992188,0 0,21.48437 c -1e-5,2.92969 -0.703135,5.16276 -2.109375,6.69922 -1.406257,1.54947 -3.444015,2.32421 -6.113281,2.32422 l -3.457032,0 0,-4.58984 1.210938,0 c 1.328124,-10e-6 2.239581,-0.29949 2.734375,-0.89844 0.494789,-0.59896 0.742184,-1.77735 0.742187,-3.53516 l 0,-21.48437 m 0,-8.51563 6.992188,0 0,5.70313 -6.992188,0 0,-5.70313"
         style="font-size:40px;font-weight:bold;letter-spacing:-2.83999991px;font-family:DejaVu Sans;-inkscape-font-specification:DejaVu Sans"
         id="path4006" />
      <path
         inkscape:connector-curvature="0"
         d="m 103.67529,915.34973 6.99219,0 0,16.54297 8.04687,-8.02734 8.125,0 -10.68359,10.03906 11.52344,11.83594 -8.47657,0 -8.53515,-9.1211 0,9.1211 -6.99219,0 0,-30.39063"
         style="font-size:40px;font-weight:bold;letter-spacing:-2.83999991px;font-family:DejaVu Sans;-inkscape-font-specification:DejaVu Sans"
         id="path4008" />
      <path
         inkscape:connector-curvature="0"
         d="m 128.19857,938.18176 7.03125,0 0,7.5586 -7.03125,0 0,-7.5586"
         style="font-size:40px;font-weight:bold;letter-spacing:-2.83999991px;font-family:DejaVu Sans;-inkscape-font-specification:DejaVu Sans"
         id="path4010" />
    </g>
  </g>
</svg>
